{
    "asset": {
        "version": "2.0",
        "generator": "Open Asset Import Library (assimp v5.0.5eb040c7)"
    },
    "accessors": [
        {
            "bufferView": 0,
            "byteOffset": 0,
            "componentType": 5126,
            "count": 376,
            "type": "VEC3",
            "max": [
                251.41175842285157,
                70.0,
                250.0
            ],
            "min": [
                -75.0,
                0.0,
                -164.0185546875
            ]
        },
        {
            "bufferView": 1,
            "byteOffset": 0,
            "componentType": 5126,
            "count": 376,
            "type": "VEC3",
            "max": [
                1.0,
                1.0,
                1.0
            ],
            "min": [
                -1.0,
                -1.0,
                -1.0
            ]
        },
        {
            "bufferView": 2,
            "byteOffset": 0,
            "componentType": 5126,
            "count": 376,
            "type": "VEC2",
            "max": [
                16.320587158203126,
                56.366241455078128
            ],
            "min": [
                -16.320587158203126,
                -52.74768829345703
            ]
        },
        {
            "bufferView": 3,
            "byteOffset": 0,
            "componentType": 5125,
            "count": 1074,
            "type": "SCALAR",
            "max": [
                375
            ],
            "min": [
                0
            ]
        },
        {
            "bufferView": 4,
            "byteOffset": 0,
            "componentType": 5126,
            "count": 368,
            "type": "VEC3",
            "max": [
                76.18627166748047,
                70.0,
                250.0
            ],
            "min": [
                -252.58103942871095,
                0.0,
                -163.7578125
            ]
        },
        {
            "bufferView": 5,
            "byteOffset": 0,
            "componentType": 5126,
            "count": 368,
            "type": "VEC3",
            "max": [
                1.0,
                1.0,
                1.0
            ],
            "min": [
                -1.0,
                -1.0,
                -0.9999973177909851
            ]
        },
        {
            "bufferView": 6,
            "byteOffset": 0,
            "componentType": 5126,
            "count": 368,
            "type": "VEC2",
            "max": [
                16.43836784362793,
                55.865421295166019
            ],
            "min": [
                -16.43836784362793,
                -53.17289352416992
            ]
        },
        {
            "bufferView": 7,
            "byteOffset": 0,
            "componentType": 5125,
            "count": 1056,
            "type": "SCALAR",
            "max": [
                367
            ],
            "min": [
                0
            ]
        }
    ],
    "buffers": [
        {
            "byteLength": 32328,
            "uri": "result.bin"
        }
    ],
    "bufferViews": [
        {
            "buffer": 0,
            "byteOffset": 0,
            "byteLength": 4512,
            "target": 34962
        },
        {
            "buffer": 0,
            "byteOffset": 4512,
            "byteLength": 4512,
            "target": 34962
        },
        {
            "buffer": 0,
            "byteOffset": 9024,
            "byteLength": 3008,
            "target": 34962
        },
        {
            "buffer": 0,
            "byteOffset": 12032,
            "byteLength": 4296,
            "target": 34963
        },
        {
            "buffer": 0,
            "byteOffset": 16328,
            "byteLength": 4416,
            "target": 34962
        },
        {
            "buffer": 0,
            "byteOffset": 20744,
            "byteLength": 4416,
            "target": 34962
        },
        {
            "buffer": 0,
            "byteOffset": 25160,
            "byteLength": 2944,
            "target": 34962
        },
        {
            "buffer": 0,
            "byteOffset": 28104,
            "byteLength": 4224,
            "target": 34963
        }
    ],
    "materials": [
        {
            "name": "DefaultMaterial",
            "pbrMetallicRoughness": {
                "baseColorFactor": [
                    0.6000000238418579,
                    0.6000000238418579,
                    0.6000000238418579,
                    1.0
                ],
                "metallicFactor": 0.0
            }
        },
        {
            "name": "Paint_-_Enamel_Glossy_(Green)",
            "pbrMetallicRoughness": {
                "baseColorFactor": [
                    0.6000000238418579,
                    0.6000000238418579,
                    0.6000000238418579,
                    1.0
                ],
                "metallicFactor": 0.0
            }
        },
        {
            "name": "Paint_-_Enamel_Glossy_(Blue)",
            "pbrMetallicRoughness": {
                "baseColorFactor": [
                    0.6000000238418579,
                    0.6000000238418579,
                    0.6000000238418579,
                    1.0
                ],
                "metallicFactor": 0.0
            }
        }
    ],
    "meshes": [
        {
            "name": "Body2",
            "primitives": [
                {
                    "mode": 4,
                    "material": 1,
                    "indices": 3,
                    "attributes": {
                        "POSITION": 0,
                        "NORMAL": 1,
                        "TEXCOORD_0": 2
                    }
                }
            ]
        },
        {
            "name": "Body3",
            "primitives": [
                {
                    "mode": 4,
                    "material": 2,
                    "indices": 7,
                    "attributes": {
                        "POSITION": 4,
                        "NORMAL": 5,
                        "TEXCOORD_0": 6
                    }
                }
            ]
        }
    ],
    "nodes": [
        {
            "name": "input.obj",
            "children": [
                1,
                2
            ]
        },
        {
            "name": "Body2",
            "mesh": 0
        },
        {
            "name": "Body3",
            "mesh": 1
        }
    ],
    "scenes": [
        {
            "nodes": [
                0
            ]
        }
    ],
    "scene": 0
}